<svg width="100" viewBox="0 0 67 24" fill="none" xmlns="http://www.w3.org/2000/svg">
<path d="M56.1093 20.5716C52.9071 20.5716 50.643 18.0813 50.643 14.8145C50.643 11.5476 52.9071 9.0574 56.1093 9.0574C59.3115 9.0574 61.511 11.5476 61.511 14.8145C61.511 18.0813 59.2792 20.5716 56.1093 20.5716ZM55.5918 24C58.1795 24 60.3789 22.9972 61.7695 20.8947C62.028 22.9326 63.516 23.6763 65.3918 23.6763H66.8798V20.4418H66.233C65.1656 20.4418 64.9071 19.9242 64.9071 18.7276V5.95153H61.4787V8.57159C60.3143 6.72814 58.1149 5.62842 55.5923 5.62842C51.0965 5.62842 46.9567 9.38051 46.9567 14.8139C46.9567 20.2473 51.0959 24 55.5918 24ZM37.9322 19.5688C37.9322 22.4797 39.7433 23.6763 41.9104 23.6763H46.0826V20.4418H43.0425C41.7812 20.4418 41.5221 19.9565 41.5221 18.7276V9.18608H46.0826V5.95153H41.5221V0H37.9322V19.5688ZM21.5985 23.6763H25.1884V16.0758H26.3851L32.4982 23.6763H37.0263L29.2313 14.0379L35.2152 5.9521H31.1723L26.2882 12.7766H25.1884V0.00113398H21.5985V23.6763ZM9.95446 5.62842C4.9411 5.62842 0.80127 9.38051 0.80127 14.8139C0.80127 20.2473 4.9411 23.9994 9.95446 23.9994C14.9678 23.9994 19.1077 20.2473 19.1077 14.8139C19.1077 9.38051 14.9678 5.62842 9.95446 5.62842ZM9.95446 20.5716C6.75223 20.5716 4.48816 18.0813 4.48816 14.8145C4.48816 11.5476 6.75223 9.0574 9.95446 9.0574C13.1567 9.0574 15.4208 11.5476 15.4208 14.8145C15.4208 18.0813 13.1567 20.5716 9.95446 20.5716Z" fill="black"/>
</svg>
